# AST/ASF file generated using VICON BodyLanguage
# -----------------------------------------------
:version 1.10
:name VICON
:units
  mass 1.0
  length 0.45
  angle deg
:documentation
   .ast/.asf automatically generated from VICON data using
   VICON BodyBuilder and BodyLanguage model FoxedUp or BRILLIANT.MOD
:root
   order TX TY TZ RX RY RZ
   axis XYZ
   position 0 0 0  
   orientation 0 0 0 
:bonedata
  begin
     id 1 
     name lhipjoint
     direction 0.627457 -0.725269 0.283342 
     length 2.53237 
     axis 0 0 0  XYZ
  end
  begin
     id 2 
     name lfemur
     direction 0.34202 -0.939693 0  
     length 7.32496  
     axis 0 0 20  XYZ
    dof rx ry rz
    limits (-160.0 20.0)
           (-70.0 70.0)
           (-60.0 70.0)
  end
  begin
     id 3 
     name ltibia
     direction 0.34202 -0.939693 0   
     length 7.69674   
     axis 0 0 20   XYZ
    dof rx
    limits (-10.0 170.0)
  end
  begin
     id 4 
     name lfoot
     direction 0.127289 -0.349722 0.928166   
     length 1.8612   
     axis -90 7.62852e-016 20   XYZ
    dof rx rz
    limits (-45.0 90.0)
           (-70.0 20.0)
  end
  begin
     id 5 
     name ltoes
     direction 1.53561e-011 -4.21864e-011 1   
     length 0.925608   
     axis -90 7.62852e-016 20   XYZ
    dof rx
    limits (-90.0 20.0)
  end
  begin
     id 6 
     name rhipjoint
     direction -0.609094 -0.738725 0.288599   
     length 2.48624  
     axis 0 0 0  XYZ 
  end
  begin
     id 7 
     name rfemur
     direction -0.34202 -0.939693 0   
     length 7.44259   
     axis 0 0 -20   XYZ
    dof rx ry rz
    limits (-160.0 20.0)
           (-70.0 70.0)
           (-70.0 60.0)
  end
  begin
     id 8 
     name rtibia
     direction -0.34202 -0.939693 0   
     length 7.7781   
     axis 0 0 -20   XYZ
    dof rx
    limits (-10.0 170.0)
 end
 begin
     id 9 
     name rfoot
     direction -0.107015 -0.294021 0.949789   
     length 2.14741  
     axis -90 -7.62852e-016 -20   XYZ
    dof rx rz
    limits (-45.0 90.0)
           (-20.0 70.0)
  end
  begin
     id 10 
     name rtoes
     direction -1.53497e-011 -4.21924e-011 1   
     length 1.0706   
     axis -90 -7.62852e-016 -20   XYZ
    dof rx
    limits (-90.0 20.0)
  end
  begin
     id 11 
     name lowerback
     direction -0.0142066 0.998112 -0.0597545   
     length 1.86627   
     axis 0 0 0   XYZ
    dof rx ry rz
    limits (-20.0 45.0)
           (-30.0 30.0)
           (-30.0 30.0)
  end
  begin
     id 12 
     name upperback
     direction 0.00547294 0.999744 0.0219437   
     length 1.86272   
     axis 0 0 0   XYZ
    dof rx ry rz
    limits (-20.0 45.0)
           (-30.0 30.0)
           (-30.0 30.0)
  end
  begin
     id 13 
     name thorax
     direction 0.0116162 0.998704 0.0495538   
     length 1.8703   
     axis 0 0 0   XYZ
    dof rx ry rz
    limits (-20.0 45.0)
           (-30.0 30.0)
           (-30.0 30.0)
  end
  begin
     id 14 
     name lowerneck
     direction -0.0106574 0.998739 0.0490586   
     length 1.8074   
     axis 0 0 0   XYZ
    dof rx ry rz
    limits (-20.0 45.0)
           (-30.0 30.0)
           (-30.0 30.0)
  end
  begin
     id 15 
     name upperneck
     direction 0.030527 0.976587 -0.212944   
     length 1.80681   
     axis 0 0 0   XYZ
    dof rx ry rz
    limits (-20.0 45.0)
           (-30.0 30.0)
           (-30.0 30.0)
  end
  begin
     id 16
     name head
     direction 0.00869225 0.997035 -0.0764531  
     length 1.8313  
     axis 0 0 0   XYZ
    dof rx ry rz
    limits (-20.0 45.0)
           (-30.0 30.0)
           (-30.0 30.0)
  end
  begin
     id 17 
     name lclavicle
     direction 0.915958 0.399447 0.0382386  
     length 3.78965  
     axis 0 0 0   XYZ
    dof ry rz
    limits (-20.0 10.0)
           (0.0 20.0)
  end
  begin
     id 18 
     name lhumerus
     direction 1 -4.48967e-011 3.19303e-027   
     length 4.78095   
     axis -180 -30 -90   XYZ
    dof rx ry rz
    limits (-60.0 90.0)
           (-90.0 90.0)
           (-90.0 90.0)
  end
  begin
     id 19
     name lradius
     direction 1 -4.48967e-011 -3.77974e-027   
     length 3.58615   
     axis -180 -30 -90   XYZ
    dof rx
    limits (-10.0 170.0)
  end
  begin
     id 20
     name lwrist
     direction 1 -4.48927e-011 1.2807e-027   
     length 1.79307   
     axis 1.91374e-015 90 90   XYZ
    dof ry
    limits (-180.0 0.0)
 end
  begin
     id 21 
     name lhand
     direction 1 -4.49036e-011 2.5614e-027   
     length 0.659812   
     axis -1.63439e-015 90 90   XYZ
    dof rx rz
    limits (-90.0 90.0)
           (-45.0 45.0)
  end
  begin
     id 22 
     name lfingers
     direction 1 -4.49052e-011 5.1228e-027   
     length 0.531957   
     axis -3.26879e-015 90 90   XYZ
    dof rx
    limits (0.0 90.0)
  end
  begin
     id 23
     name lthumb
     direction 0.707107 -6.35012e-011 0.707107   
     length 0.763787   
     axis -90 45 2.85299e-015   XYZ
    dof rx rz
    limits (-45.0 45.0)
           (-45.0 45.0)
  end
  begin
     id 24 
     name rclavicle
     direction -0.895351 0.435135 0.0948887   
     length 3.70497  
     axis 0 0 0   XYZ 
    dof ry rz
    limits (-10.0 20.0)
           (-20.0 0.0)
  end
  begin
     id 25 
     name rhumerus
     direction -1 -4.48971e-011 2.38946e-027  
     length 4.48913   
     axis -180 30 90   XYZ
    dof rx ry rz
    limits (-90.0 60.0)
           (-90.0 90.0)
           (-90.0 90.0)
  end
  begin
     id 26 
     name rradius
     direction -1 -4.4895e-011 4.38668e-027   
     length 3.7051   
     axis -180 30 90   XYZ
    dof rx
    limits (-10.0 170.0)
  end
  begin
     id 27 
     name rwrist
     direction -1 -4.49007e-011 1.2807e-027   
     length 1.85255   
     axis 1.91374e-015 -90 -90   XYZ
    dof ry
    limits (-180.0 0.0)
  end
  begin
     id 28
     name rhand
     direction -1 -4.48851e-011 2.5614e-027   
     length 0.449136   
     axis -1.63439e-015 -90 -90   XYZ
    dof rx rz
    limits (-90.0 90.0)
           (-45.0 45.0)
  end
  begin
     id 29
     name rfingers
     direction -1 -4.49128e-011 5.1228e-027   
     length 0.362105   
     axis -3.26879e-015 -90 -90   XYZ
    dof rx
    limits (0.0 90.0)
  end
  begin
     id 30
     name rthumb
     direction -0.707107 -6.34851e-011 0.707107   
     length 0.519912   
     axis -90 -45 -2.85299e-015   XYZ
    dof rx rz
    limits (-45.0 45.0)
           (-45.0 45.0)
  end
:hierarchy
  begin
    root lhipjoint rhipjoint lowerback
    lhipjoint lfemur
    lfemur ltibia
    ltibia lfoot
    lfoot ltoes
    rhipjoint rfemur
    rfemur rtibia
    rtibia rfoot
    rfoot rtoes
    lowerback upperback
    upperback thorax
    thorax lowerneck lclavicle rclavicle
    lowerneck upperneck
    upperneck head
    lclavicle lhumerus
    lhumerus lradius
    lradius lwrist
    lwrist lhand lthumb
    lhand lfingers
    rclavicle rhumerus
    rhumerus rradius
    rradius rwrist
    rwrist rhand rthumb
    rhand rfingers
  end

#!OML:ASF I:\Actors\actors\Patient Classification 2\Patient 1\Session 1\actor1.ASF
:FULLY-SPECIFIED
:DEGREES
92
root -0.569147 18.6975 5.62263 2.45647 -4.65422 -1.56514
lowerback 2.14914 0.312506 -0.759354
upperback -2.60209 0.431035 1.27449
thorax -3.89931 0.256086 1.71548
lowerneck -16.894 -0.282752 -0.828467
upperneck 25.561 -0.367154 0.685729
head 11.0685 -0.167114 0.335737
rclavicle 9.73113e-015 -8.94531e-016
rhumerus -47.1389 -0.411047 -87.3608
rradius 42.9348
rwrist 15.7133
rhand -9.50037 -38.0999
rfingers 7.12502
rthumb 16.4647 -67.4212
lclavicle 9.73113e-015 -8.94531e-016
lhumerus -41.8885 -2.7281 91.9985
lradius 36.2832
lwrist 3.50486
lhand -11.2496 -23.8268
lfingers 7.12502
lthumb 14.78 5.62616
rfemur 0 0 0
rtibia 0
rfoot 0 0
rtoes 0
lfemur -4.02462 -7.76939 -13.4187
ltibia 20.7556
lfoot -25.1641 16.8706
ltoes -53.6618
93
root -0.56861 18.6977 5.62337 2.48095 -4.62013 -1.60047
lowerback 2.13512 0.309564 -0.709136
upperback -2.60186 0.42916 1.27552
thorax -3.89062 0.253664 1.68849
lowerneck -17.1225 -0.346403 -0.826696
upperneck 25.6692 -0.473676 0.743144
head 11.1553 -0.207714 0.341097
rclavicle 4.06266e-015 2.98177e-016
rhumerus -47.1134 -0.396636 -87.3966
rradius 42.8201
rwrist 15.7927
rhand -9.47061 -37.9809
rfingers 7.12502
rthumb 16.4934 -67.2999
lclavicle 4.06266e-015 2.98177e-016
lhumerus -41.8099 -2.77936 91.9845
lradius 36.1428
lwrist 3.4254
lhand -11.1886 -23.7723
lfingers 7.12502
lthumb 14.8388 5.67631
rfemur 0 0 0
rtibia 0
rfoot 0 0
rtoes 0
lfemur -4.0567 -7.77729 -13.3759
ltibia 20.7659
lfoot -25.1499 16.8672
ltoes -53.6514
94
root -0.568509 18.6974 5.62409 2.48659 -4.60651 -1.6103
lowerback 2.10158 0.304533 -0.707686
upperback -2.58604 0.422721 1.28459
thorax -3.85505 0.250247 1.6975
lowerneck -17.1782 -0.406836 -0.870762
upperneck 25.6271 -0.571514 0.832338
head 11.1518 -0.245053 0.366715
rclavicle 5.38893e-015 3.18055e-015
rhumerus -47.0626 -0.29524 -87.4523
rradius 42.7393
rwrist 15.8103
rhand -9.43015 -38.0704
rfingers 7.12502
rthumb 16.5323 -67.3861
lclavicle 5.38893e-015 3.18055e-015
lhumerus -41.7438 -2.90724 92.0352
lradius 36.0503
lwrist 3.35993
lhand -11.1814 -23.7675
lfingers 7.12502
lthumb 14.8457 5.68062
rfemur 0 0 0
rtibia 0
rfoot 0 0
rtoes 0
lfemur -4.06158 -7.79488 -13.3674
ltibia 20.7717
lfoot -25.1477 16.8791
ltoes -53.6586
95
root -0.568313 18.6975 5.62518 2.48313 -4.6037 -1.61481
lowerback 2.08105 0.302652 -0.699662
upperback -2.57722 0.420666 1.29024
thorax -3.83419 0.248902 1.69899
lowerneck -17.0152 -0.450017 -0.939283
upperneck 25.3714 -0.644866 0.94842
head 11.0251 -0.270846 0.409418
rclavicle 5.34234e-015 -5.86415e-015
rhumerus -47.0292 -0.198442 -87.4967
rradius 42.7053
rwrist 15.7931
rhand -9.41 -38.1705
rfingers 7.12502
rthumb 16.5517 -67.4846
lclavicle 5.34234e-015 -5.86415e-015
lhumerus -41.7013 -3.05092 92.1041
lradius 36
lwrist 3.44952
lhand -11.2138 -24.1059
lfingers 7.12502
lthumb 14.8146 5.34458
rfemur 0 0 0
rtibia 0
rfoot 0 0
rtoes 0
lfemur -4.05103 -7.84496 -13.3693
ltibia 20.7694
lfoot -25.1638 16.9077
ltoes -53.6827
96
root -0.567995 18.697 5.62605 2.45412 -4.5879 -1.62846
lowerback 2.08408 0.299689 -0.676744
upperback -2.55125 0.417743 1.29986
thorax -3.80878 0.246643 1.69618
lowerneck -16.8314 -0.482831 -1.01208
upperneck 25.0692 -0.695501 1.04329
head 10.8775 -0.2896 0.448182
rclavicle 2.07792e-015 -2.98177e-016
rhumerus -46.9759 -0.151124 -87.5072
rradius 42.6992
rwrist 15.7726
rhand -9.49325 -38.1046
rfingers 7.12502
rthumb 16.4716 -67.4253
lclavicle 2.07792e-015 -2.98177e-016
lhumerus -41.6652 -3.18124 92.1767
lradius 36.0308
lwrist 3.6125
lhand -11.3155 -24.3216
lfingers 7.12502
lthumb 14.7166 5.13605
rfemur 0 0 0
rtibia 0
rfoot 0 0
rtoes 0
lfemur -4.02108 -7.87378 -13.3596
ltibia 20.7658
lfoot -25.152 16.9246
ltoes -53.7243
97
root -0.567385 18.6959 5.62633 2.41992 -4.57012 -1.62805
lowerback 2.0817 0.283141 -0.684764
upperback -2.50297 0.395754 1.32309
thorax -3.7569 0.235674 1.72581
lowerneck -16.9068 -0.515119 -1.26861
upperneck 24.9969 -0.715073 1.22495
head 10.8673 -0.300223 0.554144
rclavicle -4.31425e-015 -1.89839e-014
rhumerus -46.8734 -0.0909419 -87.5017
rradius 42.7197
rwrist 15.7509
rhand -9.59291 -38.0112
rfingers 7.12502
rthumb 16.3756 -67.3399
lclavicle -4.31425e-015 -1.89839e-014
lhumerus -41.6088 -3.21168 92.2289
lradius 36.113
lwrist 3.6758
lhand -11.3662 -23.9834
lfingers 7.12502
lthumb 14.6677 5.47779
rfemur 0 0 0
rtibia 0
rfoot 0 0
rtoes 0
lfemur -3.98824 -7.86445 -13.363
ltibia 20.7675
lfoot -25.1407 16.8995
ltoes -53.7534
98
root -0.566892 18.6962 5.62646 2.41055 -4.56293 -1.61686
lowerback 2.08622 0.253652 -0.716445
upperback -2.48232 0.356011 1.35414
thorax -3.73714 0.21697 1.77775
lowerneck -17.1707 -0.543564 -1.70326
upperneck 25.1811 -0.70483 1.51026
head 10.9902 -0.300924 0.73323
rclavicle -1.13866e-014 -6.65929e-015
rhumerus -46.8049 -0.0499767 -87.4816
rradius 42.7714
rwrist 15.7733
rhand -9.63638 -37.9773
rfingers 7.12502
rthumb 16.3338 -67.3094
lclavicle -1.13866e-014 -6.65929e-015
lhumerus -41.5318 -3.01426 92.1913
lradius 36.1287
lwrist 3.59913
lhand -11.3653 -23.8227
lfingers 7.12502
lthumb 14.6686 5.63848
rfemur 0 0 0
rtibia 0
rfoot 0 0
rtoes 0
lfemur -3.98315 -7.83924 -13.3731
ltibia 20.7741
lfoot -25.1311 16.8673
ltoes -53.7644
99
root -0.566342 18.6964 5.62709 2.40631 -4.56181 -1.59938
lowerback 2.11474 0.230335 -0.740544
upperback -2.49841 0.324387 1.36506
thorax -3.76906 0.202349 1.80422
lowerneck -17.3064 -0.561252 -1.96353
upperneck 25.3848 -0.715776 1.73538
head 11.0952 -0.302673 0.858809
rclavicle -8.75274e-015 -7.85199e-015
rhumerus -46.8093 -0.119376 -87.4446
rradius 42.834
rwrist 15.81
rhand -9.64722 -37.9949
rfingers 7.12502
rthumb 16.3233 -67.3279
lclavicle -8.75274e-015 -7.85199e-015
lhumerus -41.5158 -2.79453 92.1174
lradius 36.1402
lwrist 3.53414
lhand -11.3959 -23.8887
lfingers 7.12502
lthumb 14.6391 5.57453
rfemur 0 0 0
rtibia 0
rfoot 0 0
rtoes 0
lfemur -3.97796 -7.82922 -13.3926
ltibia 20.778
lfoot -25.1531 16.8499
ltoes -53.6844
